<?xml version="1.0" standalone="no"?>
<!DOCTYPE svg PUBLIC "-//W3C//DTD SVG 20010904//EN"
 "http://www.w3.org/TR/2001/REC-SVG-20010904/DTD/svg10.dtd">
<svg version="1.0" xmlns="http://www.w3.org/2000/svg"
 width="4096.000000pt" height="4096.000000pt" viewBox="0 0 4096.000000 4096.000000"
 preserveAspectRatio="xMidYMid meet">
<metadata>
Created by potrace 1.11, written by Peter Selinger 2001-2013
</metadata>
<g transform="translate(0.000000,4096.000000) scale(0.100000,-0.100000)"
fill="#000000" stroke="none">
<path d="M15419 32948 c-146 -5 -246 -13 -424 -33 -105 -12 -378 -58 -575 -96
-1504 -295 -2804 -856 -3905 -1684 -496 -374 -902 -751 -1349 -1255 -244 -275
-586 -729 -823 -1095 -664 -1025 -1050 -1935 -1324 -3125 -69 -299 -89 -417
-89 -524 0 -55 -5 -139 -11 -188 -9 -64 -9 -103 -1 -145 6 -32 12 -159 13
-282 1 -206 4 -235 29 -350 105 -471 113 -518 106 -611 -3 -41 -8 -89 -12
-107 -4 -22 3 -58 26 -125 17 -51 35 -129 40 -173 13 -110 28 -184 47 -225 76
-166 107 -247 123 -320 10 -47 26 -117 34 -156 9 -41 36 -109 66 -167 49 -92
109 -245 110 -277 0 -9 11 -31 24 -50 13 -19 56 -98 96 -175 40 -77 81 -151
90 -165 57 -82 276 -519 310 -620 18 -52 52 -135 77 -183 24 -48 53 -111 64
-139 59 -150 107 -241 198 -378 43 -63 90 -136 105 -162 15 -26 52 -74 81
-108 63 -70 76 -92 120 -211 24 -64 48 -107 92 -161 62 -76 127 -177 157 -240
10 -20 37 -52 59 -71 146 -119 265 -272 354 -452 32 -64 117 -174 429 -555
462 -564 883 -1090 1123 -1400 96 -124 198 -254 226 -290 28 -36 67 -85 85
-110 50 -66 782 -984 789 -990 4 -3 58 -70 121 -150 63 -80 117 -147 120 -150
4 -4 260 -323 297 -370 7 -8 52 -64 100 -125 445 -555 867 -1112 1258 -1660
201 -281 568 -781 584 -795 3 -3 26 -32 50 -65 218 -295 757 -957 1630 -2004
520 -623 718 -863 907 -1097 63 -78 120 -146 127 -151 29 -22 127 -47 179 -46
69 0 134 24 208 75 53 36 244 214 439 408 127 127 169 163 346 305 82 66 174
142 205 169 65 57 498 474 582 561 189 194 199 208 216 273 16 65 -8 160 -48
197 -11 10 -17 22 -14 26 3 5 -23 46 -57 92 -67 87 -169 222 -299 392 -169
222 -242 318 -425 560 -104 138 -236 311 -292 385 -176 231 -451 593 -618 814
-153 201 -639 840 -869 1141 -58 77 -158 208 -220 290 -63 83 -162 213 -221
290 -59 77 -131 172 -160 210 -29 39 -110 144 -179 235 -69 91 -184 242 -255
335 -71 94 -186 244 -255 335 -70 91 -184 242 -255 335 -71 94 -191 251 -266
350 -75 99 -202 266 -281 370 -79 105 -199 262 -266 350 -67 88 -164 216 -216
285 -52 69 -105 139 -118 155 -13 17 -160 210 -326 430 -269 355 -394 519
-706 930 -46 61 -92 121 -102 135 -10 14 -78 104 -152 200 -73 96 -227 299
-341 450 -114 151 -302 401 -419 555 -398 528 -964 1280 -971 1292 -4 7 -10
40 -13 75 -11 120 -31 170 -143 353 -55 90 -61 105 -61 155 0 74 -34 165 -102
276 -33 54 -60 113 -67 143 -13 63 -30 94 -75 144 -35 38 -37 46 -67 233 -20
132 -50 366 -66 513 -18 179 -26 736 -12 871 56 529 190 1036 411 1560 51 120
209 438 276 552 153 264 369 571 532 758 12 14 45 52 73 85 76 88 388 400 490
489 174 152 454 365 627 477 168 110 239 153 375 231 675 386 1264 599 1875
677 293 38 683 36 1000 -5 627 -81 1323 -346 1880 -717 285 -190 640 -507 910
-813 192 -217 380 -451 610 -759 91 -121 167 -222 170 -225 3 -3 41 -54 85
-115 44 -60 85 -117 92 -125 7 -8 98 -132 203 -275 105 -143 197 -266 205
-274 11 -11 18 -5 41 35 16 27 69 103 119 169 49 66 208 282 352 480 144 198
271 371 281 385 11 14 64 84 118 155 558 739 1097 1240 1721 1598 477 274
1011 448 1523 497 63 6 133 13 155 15 51 6 492 7 525 1 14 -2 61 -7 105 -11
216 -17 513 -67 730 -122 55 -14 105 -26 110 -27 178 -41 540 -180 800 -306
566 -275 1049 -623 1530 -1105 593 -592 1024 -1239 1325 -1991 190 -474 329
-1048 364 -1509 3 -38 9 -104 12 -145 8 -96 8 -552 0 -650 -3 -41 -9 -106 -12
-145 -17 -226 -83 -601 -159 -905 -14 -58 -41 -178 -61 -268 -70 -325 -130
-534 -211 -732 -66 -162 -117 -244 -366 -595 -47 -66 -132 -185 -188 -265
-223 -314 -287 -404 -459 -645 -98 -137 -183 -254 -187 -260 -5 -5 -45 -62
-90 -125 -137 -191 -477 -661 -833 -1150 -102 -140 -215 -295 -250 -344 -36
-49 -141 -193 -234 -320 -93 -127 -211 -287 -261 -356 -215 -295 -253 -346
-310 -424 -67 -90 -371 -504 -481 -654 -38 -54 -138 -189 -220 -302 -158 -215
-472 -644 -633 -865 -52 -71 -147 -202 -211 -290 -554 -763 -788 -1072 -865
-1142 -232 -213 -443 -135 -651 239 -52 94 -233 387 -470 758 -50 80 -226 357
-389 615 -423 668 -496 783 -592 935 -224 351 -241 411 -141 506 70 66 88 77
633 359 660 342 1138 610 1388 776 311 209 575 466 831 810 195 264 355 534
547 924 97 199 141 295 286 620 158 355 218 683 183 1000 -17 155 -41 240
-212 750 -201 602 -359 885 -721 1289 -82 92 -196 216 -397 430 -294 313 -549
534 -835 721 -124 81 -316 195 -330 195 -2 0 -42 18 -87 41 -367 180 -886 307
-1408 345 -47 3 -103 7 -125 10 -250 25 -1750 25 -2220 0 -44 -3 -143 -8 -220
-11 -77 -3 -169 -8 -205 -10 -36 -2 -114 -7 -175 -10 -60 -3 -139 -8 -175 -10
-36 -2 -103 -7 -150 -10 -47 -3 -105 -8 -130 -10 -25 -3 -108 -10 -185 -15
-77 -6 -153 -13 -170 -15 -16 -1 -64 -6 -105 -9 -314 -28 -735 -74 -800 -87
-179 -36 -312 -134 -386 -284 -52 -107 -65 -184 -59 -376 7 -221 14 -425 19
-534 3 -49 8 -155 11 -235 4 -80 10 -195 15 -255 14 -178 60 -266 167 -322
105 -55 170 -60 833 -68 239 -3 644 -8 900 -12 524 -7 1577 -7 1925 -1 412 8
657 -43 976 -202 665 -334 1119 -928 1230 -1609 21 -127 29 -420 14 -527 -39
-289 -109 -486 -243 -690 -221 -336 -584 -632 -977 -796 -234 -97 -418 -137
-755 -163 -41 -3 -100 -8 -130 -10 -30 -3 -143 -12 -250 -20 -107 -8 -217 -17
-245 -20 -48 -4 -97 -8 -280 -20 -89 -6 -199 -13 -290 -20 -132 -10 -217 -15
-370 -25 -88 -6 -189 -12 -225 -15 -70 -5 -174 -12 -310 -20 -210 -13 -422
-26 -505 -30 -49 -3 -108 -8 -130 -10 -22 -3 -85 -7 -140 -10 -293 -18 -432
-124 -503 -385 -86 -315 -38 -682 131 -1011 75 -147 107 -195 553 -839 79
-113 162 -233 186 -268 24 -34 66 -95 94 -135 28 -40 133 -191 234 -337 101
-146 210 -303 242 -350 33 -47 144 -206 247 -355 215 -309 1361 -1958 1554
-2235 71 -102 150 -216 175 -253 26 -37 81 -116 123 -175 41 -59 192 -276 335
-482 144 -206 302 -433 352 -505 50 -71 110 -158 134 -193 24 -34 82 -118 129
-185 47 -67 146 -210 221 -317 198 -285 459 -660 539 -775 39 -55 119 -170
178 -255 349 -504 412 -590 469 -647 104 -103 192 -144 307 -144 89 0 150 19
228 70 84 54 130 104 298 321 78 102 157 203 175 226 18 23 48 61 67 85 18 24
114 148 213 275 98 127 316 408 484 625 168 217 310 401 317 409 16 20 184
236 412 530 100 129 193 249 205 265 13 17 206 264 428 550 222 286 441 569
488 629 47 60 112 144 145 187 33 43 125 162 205 265 80 102 179 230 220 284
41 53 87 112 102 131 15 19 104 133 198 254 93 121 202 261 240 310 39 50 170
218 291 375 121 157 242 312 268 345 46 59 364 468 492 633 143 187 200 260
584 753 219 283 438 564 485 625 120 156 506 649 657 841 833 1054 1090 1405
1268 1728 462 842 677 1318 824 1830 48 171 94 338 116 425 38 151 90 307 121
359 33 56 48 101 130 395 66 236 85 335 100 541 3 50 8 97 9 105 2 8 6 78 10
155 4 77 8 156 10 175 4 37 11 283 21 740 3 151 8 284 10 295 9 44 11 596 3
695 -37 441 -265 1370 -482 1960 -124 340 -324 786 -472 1055 -18 33 -41 76
-52 95 -15 30 -162 275 -228 383 -39 64 -220 324 -293 421 -185 247 -336 425
-608 716 -989 1059 -2021 1817 -3184 2338 -735 329 -1602 567 -2430 666 -510
62 -1092 52 -1555 -25 -377 -63 -802 -187 -1091 -319 -35 -17 -67 -30 -69 -30
-8 0 -251 -122 -330 -165 -164 -90 -400 -243 -560 -363 -90 -68 -283 -223
-317 -254 -7 -7 -63 -56 -123 -108 -61 -52 -112 -97 -115 -100 -3 -3 -50 -46
-105 -95 -103 -93 -165 -150 -294 -270 -41 -39 -85 -79 -96 -90 -26 -24 -289
-271 -395 -371 -41 -39 -109 -102 -150 -141 -41 -38 -104 -98 -140 -131 -36
-34 -70 -62 -76 -62 -7 0 -52 46 -100 102 -49 57 -101 116 -115 133 -15 16
-96 111 -180 210 -159 186 -416 451 -599 617 -99 89 -309 280 -410 372 -25 23
-74 66 -110 96 -36 30 -67 57 -70 60 -12 13 -171 140 -225 181 -291 220 -521
341 -920 487 -332 122 -766 227 -1105 266 -309 37 -567 47 -881 34z"/>
</g>
</svg>
